HIERARCHY
ROOT Hips
{
    OFFSET 0.000000 0.000000 0.000000
    CHANNELS 6 Xposition Yposition Zposition Zrotation Xrotation Yrotation
    JOINT Spine
    {
        OFFSET -0.000000 0.081343 0.000000
        CHANNELS 3 Zrotation Xrotation Yrotation
        JOINT Spine1
        {
            OFFSET -0.000000 0.243280 0.000000
            CHANNELS 3 Zrotation Xrotation Yrotation
            JOINT Neck
            {
                OFFSET -0.000000 0.242281 0.022026
                CHANNELS 3 Zrotation Xrotation Yrotation
                JOINT Head
                {
                    OFFSET -0.000000 0.149025 -0.021289
                    CHANNELS 3 Zrotation Xrotation Yrotation
                    End Site
                    {
                        OFFSET -0.000000 0.198396 0.000000
                    }
                }
            }
            JOINT LeftShoulder
            {
                OFFSET 0.039707 0.224479 -0.002125
                CHANNELS 3 Zrotation Xrotation Yrotation
                JOINT LeftArm
                {
                    OFFSET 0.116942 0.000000 0.000000
                    CHANNELS 3 Zrotation Xrotation Yrotation
                    JOINT LeftForeArm
                    {
                        OFFSET 0.282002 0.000000 0.000000
                        CHANNELS 3 Zrotation Xrotation Yrotation
                        JOINT LeftHand
                        {
                            OFFSET 0.358743 0.000000 0.000000
                            CHANNELS 3 Zrotation Xrotation Yrotation
                            End Site
                            {
                                OFFSET 0.148797 0.000000 0.000000
                            }
                        }
                    }
                }
            }
            JOINT RightShoulder
            {
                OFFSET -0.039404 0.224479 -0.002125
                CHANNELS 3 Zrotation Xrotation Yrotation
                JOINT RightArm
                {
                    OFFSET -0.116942 0.000000 0.000000
                    CHANNELS 3 Zrotation Xrotation Yrotation
                    JOINT RightForeArm
                    {
                        OFFSET -0.282002 0.000000 0.000000
                        CHANNELS 3 Zrotation Xrotation Yrotation
                        JOINT RightHand
                        {
                            OFFSET -0.358743 0.000000 0.000000
                            CHANNELS 3 Zrotation Xrotation Yrotation
                            End Site
                            {
                                OFFSET -0.148797 0.000000 0.000000
                            }
                        }
                    }
                }
            }
        }
    }
    JOINT LeftUpLeg
    {
        OFFSET 0.099198 0.000000 0.000000
        CHANNELS 3 Zrotation Xrotation Yrotation
        JOINT LeftLeg
        {
            OFFSET -0.000000 -0.332973 0.000000
            CHANNELS 3 Zrotation Xrotation Yrotation
            JOINT LeftFoot
            {
                OFFSET -0.000000 -0.491254 0.000000
                CHANNELS 3 Zrotation Xrotation Yrotation
                JOINT LeftToeBase
                {
                    OFFSET -0.000000 -0.064479 0.148797
                    CHANNELS 3 Zrotation Xrotation Yrotation
                    End Site
                    {
                        OFFSET -0.000000 0.000000 0.039679
                    }
                }
            }
        }
    }
    JOINT RightUpLeg
    {
        OFFSET -0.099198 0.000000 0.000000
        CHANNELS 3 Zrotation Xrotation Yrotation
        JOINT RightLeg
        {
            OFFSET -0.000000 -0.332973 0.000000
            CHANNELS 3 Zrotation Xrotation Yrotation
            JOINT RightFoot
            {
                OFFSET -0.000000 -0.491254 0.000000
                CHANNELS 3 Zrotation Xrotation Yrotation
                JOINT RightToeBase
                {
                    OFFSET -0.000000 -0.064479 0.148797
                    CHANNELS 3 Zrotation Xrotation Yrotation
                    End Site
                    {
                        OFFSET -0.000000 0.000000 0.039679
                    }
                }
            }
        }
    }
}
MOTION
Frames:    14
Frame Time:    0.010000
0.032311    0.876841    -0.021857    -2.419926    -1.061897    -32.652431    -3.572719    4.225620    1.967083    -1.227742    6.766113    0.686055    7.161229    20.621187    7.562202    -9.405570    -3.076874    6.587277    -7.553685    15.232911    7.745193    -51.527283    -12.146172    -25.776463    52.691383    -51.300922    -80.424522    47.412731    -4.595079    9.633193    5.182884    15.492869    6.402761    41.489758    14.731157    27.159782    -86.352982    -50.241737    21.457766    -44.363167    -30.612637    -13.444997    7.616928    -14.270575    5.270890    -5.035856    25.265318    -4.133017    5.104058    -14.998678    15.162644    0.000000    0.000000    0.000000    -7.975123    -17.778772    -9.557262    3.959912    34.384224    -9.994321    3.038239    -17.425560    -1.337658    0.000000    0.000000    0.000000    
0.033359    0.876791    -0.022217    -2.407618    -0.965188    -33.370583    -3.458510    4.080829    2.081738    -1.313010    7.071447    0.735594    7.021330    20.444170    7.538007    -9.462859    -3.045848    6.536925    -7.731150    15.546177    7.528148    -51.754940    -11.765816    -25.399071    53.122108    -51.772713    -80.863991    47.217743    -3.847815    10.799128    5.147577    15.366948    6.519209    41.401539    14.554225    27.501240    -86.400375    -50.792168    22.021643    -45.077991    -30.714813    -13.594737    7.820525    -14.294445    4.863657    -5.613839    25.271980    -3.314751    5.299561    -15.027326    15.641873    0.000000    0.000000    0.000000    -8.082670    -18.478102    -12.807593    0.418510    35.507183    -6.453625    4.470529    -16.488140    0.495620    0.000000    0.000000    0.000000    
0.034195    0.876809    -0.022412    -2.489388    -0.881872    -34.110912    -3.286382    4.102784    2.217592    -1.456308    7.079578    0.791597    7.157786    20.448580    7.520142    -9.699294    -2.964411    6.490967    -7.923963    16.018126    7.544671    -51.841194    -11.721008    -25.492090    54.414330    -51.557632    -80.107689    49.285866    -2.982029    9.518704    5.272905    15.301333    6.636381    41.081245    14.610929    27.741621    -87.014969    -50.353348    21.903412    -44.718559    -30.166548    -13.311990    8.043963    -14.389485    4.510813    -6.047355    25.506552    -2.184629    5.311532    -15.076595    15.729397    0.000000    0.000000    0.000000    -9.095259    -17.974106    -10.793418    2.916158    35.104042    -7.554579    3.987098    -16.209665    -0.615507    0.000000    0.000000    0.000000    
0.034833    0.876753    -0.022579    -2.602679    -0.808070    -34.914143    -3.175302    4.205696    2.466842    -1.436026    6.921390    0.871775    7.251899    20.426071    7.445042    -9.905709    -2.680389    6.404196    -8.026434    16.254639    7.290130    -52.152447    -11.582271    -25.087368    55.761223    -51.741077    -79.308876    49.665642    -2.974261    8.172615    5.393673    15.286407    6.671933    40.762165    14.640986    27.905354    -87.337486    -50.490303    22.030807    -45.040287    -30.144011    -13.177063    8.401425    -14.421038    5.874080    -5.872527    25.924242    -5.145163    6.025108    -14.954255    18.280039    0.000000    0.000000    0.000000    -9.581450    -18.433920    -10.302650    2.832501    36.110931    -6.902869    4.673480    -15.283121    -0.755273    0.000000    0.000000    0.000000    
0.035283    0.876665    -0.022796    -2.748516    -0.715544    -35.747158    -2.938524    4.176084    2.556692    -1.535996    7.051805    0.912527    7.169175    20.297009    7.590950    -9.975873    -2.561398    6.542731    -8.396933    16.558300    7.785858    -52.353455    -11.716378    -25.113636    53.422634    -51.632545    -82.346893    50.533745    -2.248370    8.697484    5.343472    15.157356    6.921060    40.515324    14.506374    28.226608    -87.898010    -50.164101    21.832859    -46.126072    -29.740894    -12.701476    8.884997    -14.620039    6.216380    -6.245274    26.517416    -2.378006    5.387449    -15.232092    16.020508    0.000000    0.000000    0.000000    -10.117071    -18.414091    -9.799895    2.715907    36.398064    -6.582871    8.058886    -13.520329    0.042733    0.000000    0.000000    0.000000    
0.035603    0.876453    -0.023024    -2.880326    -0.596099    -36.575943    -2.799410    4.250972    2.782115    -1.484398    6.840178    0.982755    7.302352    20.508572    7.616729    -10.271807    -2.632658    6.534863    -8.727909    16.974403    7.896726    -52.600056    -11.955294    -25.067455    53.972427    -51.627903    -82.294891    50.782616    -2.122582    7.445284    5.444295    15.112500    6.992961    40.317722    14.225421    28.243547    -86.645821    -51.236950    23.738689    -46.299927    -29.790903    -13.047245    9.418141    -14.485159    5.931874    -7.065248    26.514044    -1.551901    5.652439    -15.391750    16.526869    0.000000    0.000000    0.000000    -10.390888    -18.367882    -8.205950    3.830514    36.753639    -8.360276    5.019689    -14.544261    -0.076452    0.000000    0.000000    0.000000    
0.035823    0.876170    -0.023225    -2.994297    -0.489177    -37.408623    -2.662975    4.262085    2.925408    -1.450078    6.709559    1.028385    7.387008    20.797951    7.756818    -10.562967    -2.878646    6.635059    -9.049169    17.302197    8.135876    -52.812035    -12.124268    -24.739000    51.805725    -51.546307    -85.161217    51.426285    -1.594908    7.775530    5.491283    15.030201    7.210954    40.017399    13.971443    28.332418    -86.436287    -51.323990    24.344757    -46.355038    -29.539045    -12.789169    9.745366    -14.392265    6.087954    -7.346638    26.618540    -3.220433    6.400050    -15.368359    19.074905    0.000000    0.000000    0.000000    -10.897519    -18.296824    -8.411848    3.390186    37.043667    -7.545678    4.541937    -14.493161    0.622499    0.000000    0.000000    0.000000    
0.035911    0.875860    -0.023421    -3.079453    -0.395445    -38.218891    -2.649611    4.199818    3.068820    -1.154761    6.735370    1.059784    7.304946    20.731853    7.843824    -10.809389    -2.745900    6.688645    -9.697273    17.595093    8.434636    -52.814022    -12.368228    -24.714247    52.480503    -51.608437    -84.875900    51.594269    -1.549810    6.731615    5.315806    14.767453    7.418089    39.855755    13.760052    28.344669    -86.264244    -51.384247    24.990311    -46.216190    -29.201880    -12.588532    10.283700    -14.460661    6.394284    -7.920580    27.012230    -0.854049    5.961730    -15.667406    17.314005    0.000000    0.000000    0.000000    -11.330651    -18.372122    -7.886387    3.675592    37.425438    -8.145437    5.371722    -13.661064    0.293151    0.000000    0.000000    0.000000    
0.035883    0.875531    -0.023668    -3.136114    -0.290515    -38.988876    -2.652766    4.110732    3.197426    -0.892443    6.743944    1.088018    7.014804    20.892069    8.084701    -10.578295    -3.070773    6.947593    -10.124993    17.826927    8.749051    -52.960739    -12.498755    -24.449564    50.652985    -51.449387    -87.318710    52.354195    -0.942991    7.066028    5.147889    14.523866    7.656106    39.772015    13.436071    28.240580    -85.683647    -51.663078    26.085835    -46.503609    -28.893869    -12.351072    10.656970    -14.505527    6.831929    -8.166755    27.328762    -0.652395    6.031255    -15.808338    17.549355    0.000000    0.000000    0.000000    -11.671268    -18.334486    -7.644547    3.427833    37.682842    -8.377979    5.301876    -13.351027    0.469692    0.000000    0.000000    0.000000    
0.035847    0.875140    -0.024011    -3.165417    -0.174876    -39.689575    -2.613352    3.999356    3.283556    -0.703962    6.751348    1.107003    7.009903    20.888208    8.197597    -10.712875    -3.054765    7.043746    -10.481431    18.020855    8.970201    -52.904324    -11.504921    -24.562820    53.527336    -52.341637    -84.675018    52.121426    -1.520837    6.543959    5.050698    14.398224    7.854835    39.486877    13.161232    28.312994    -85.665070    -51.568913    26.447311    -46.609459    -28.449434    -12.302807    10.976467    -14.605716    7.356133    -8.282797    27.669786    -0.471538    6.035472    -15.954580    17.628784    0.000000    0.000000    0.000000    -12.179827    -17.496099    -7.076468    3.709478    36.627533    -9.231387    5.119096    -13.416057    1.365476    0.000000    0.000000    0.000000    
0.035621    0.874764    -0.024302    -3.180358    -0.097170    -40.352654    -2.599571    3.886683    3.352491    -0.542893    6.776303    1.121646    6.926562    21.003736    8.330335    -10.687634    -3.307502    7.167599    -10.813183    18.066351    9.132820    -52.846954    -11.538033    -24.042866    52.257988    -52.269691    -86.454300    53.003605    -1.017403    6.739018    4.976992    14.157597    8.042072    39.286278    12.970786    28.282209    -85.553383    -51.599770    26.926287    -46.605915    -28.191168    -12.080448    11.214221    -14.623586    7.909925    -8.281298    27.888498    0.696837    5.704000    -16.167564    16.535053    0.000000    0.000000    0.000000    -12.669180    -17.612532    -6.608565    4.068580    37.206203    -9.629230    4.557608    -13.210505    0.560210    0.000000    0.000000    0.000000    
0.035299    0.874391    -0.024526    -3.184815    -0.073980    -40.931900    -2.542968    3.745808    3.318266    -0.495480    6.970062    1.110003    6.939819    21.351427    8.435766    -11.056591    -4.213209    7.153260    -11.127859    18.378649    9.609354    -53.031490    -12.279532    -23.799957    49.542770    -51.513256    -89.471321    51.182026    0.044134    7.835292    4.760256    13.762782    8.381782    39.424973    12.614661    28.081053    -85.170982    -51.713554    27.804350    -46.299736    -27.902908    -11.680276    11.414089    -14.778417    8.475315    -8.253987    28.430836    -0.374612    5.970038    -16.173946    17.725151    0.000000    0.000000    0.000000    -13.246124    -17.725412    -6.290709    4.262957    37.765930    -9.498571    4.300699    -12.668465    -0.214008    0.000000    0.000000    0.000000    
0.034876    0.873986    -0.024866    -3.175369    -0.024555    -41.459118    -2.478757    3.660744    3.315152    -0.461142    6.961927    1.108115    6.904998    21.396427    8.604641    -10.950032    -4.338267    7.338292    -11.285094    18.488810    9.800549    -53.027451    -11.500139    -23.666386    50.968140    -52.102604    -88.299408    51.242653    -0.138235    7.773510    4.738670    13.607007    8.513213    39.150608    12.583680    28.132000    -85.574562    -51.563251    27.716131    -46.996498    -27.466261    -11.822587    11.726622    -14.632593    7.212815    -9.440218    28.105867    1.067526    6.286801    -16.186602    18.429775    0.000000    0.000000    0.000000    -13.767055    -17.097597    -6.039337    4.405697    37.048271    -8.166285    3.837669    -12.602358    -1.603813    0.000000    0.000000    0.000000    
0.034416    0.873490    -0.025310    -3.118894    0.017525    -41.925873    -2.483043    3.626927    3.403214    -0.398143    6.791881    1.133278    7.013227    21.484123    8.640286    -10.910940    -4.350796    7.392782    -11.421186    18.669680    9.797909    -53.046974    -11.572038    -23.310057    50.624878    -52.127121    -88.925774    51.916485    -0.088483    7.398774    4.785977    13.448006    8.479573    39.063839    12.283917    27.981720    -85.314812    -51.501904    28.374390    -46.722675    -27.082066    -11.393360    11.674226    -14.968133    9.441083    -8.056179    29.046814    -2.985458    6.625462    -16.160467    20.521200    0.000000    0.000000    0.000000    -14.405242    -16.934603    -6.093168    4.606977    37.110081    -9.657695    3.968167    -12.157652    -0.327887    0.000000    0.000000    0.000000    
